<?xml version="1.0" standalone="no"?>
<!DOCTYPE svg PUBLIC "-//W3C//DTD SVG 20010904//EN"
 "http://www.w3.org/TR/2001/REC-SVG-20010904/DTD/svg10.dtd">
<svg version="1.0" xmlns="http://www.w3.org/2000/svg"
 width="460.000000pt" height="460.000000pt" viewBox="0 0 460.000000 460.000000"
 preserveAspectRatio="xMidYMid meet">
<metadata>
Created by potrace 1.14, written by Peter Selinger 2001-2017
</metadata>
<g transform="translate(0.000000,460.000000) scale(0.100000,-0.100000)"
fill="#000000" stroke="none">
<path d="M0 2300 l0 -2300 2300 0 2300 0 0 2300 0 2300 -2300 0 -2300 0 0
-2300z m1216 -198 c23 -18 44 -53 44 -71 0 -20 -55 -12 -68 9 -9 15 -23 20
-52 20 -36 0 -40 -3 -40 -24 0 -22 6 -26 45 -32 25 -3 60 -16 78 -28 117 -79
-12 -223 -141 -157 -41 21 -62 46 -62 75 0 25 67 22 75 -4 8 -25 49 -36 81
-21 42 19 26 43 -44 67 -81 28 -102 47 -102 95 0 55 43 89 113 89 34 0 59 -6
73 -18z m404 3 c28 -14 60 -60 60 -85 0 -18 -53 -10 -77 12 -47 44 -131 16
-147 -48 -10 -40 16 -87 57 -102 32 -11 40 -11 76 8 22 11 54 20 70 20 l30 0
-21 -35 c-11 -20 -33 -42 -49 -50 -36 -19 -112 -19 -148 0 -38 19 -81 94 -81
140 0 45 42 120 79 140 34 19 115 19 151 0z m381 -14 c13 -16 19 -39 19 -73 0
-43 -4 -54 -30 -78 -29 -27 -29 -29 -12 -42 10 -7 28 -30 40 -50 l21 -38 -39
0 c-35 0 -42 5 -72 48 l-33 47 -3 -47 c-3 -47 -4 -48 -38 -48 l-34 0 0 156 0
156 81 -4 c70 -3 83 -6 100 -27z m337 -3 c-3 -32 -4 -33 -55 -36 -49 -3 -53
-5 -53 -28 0 -22 4 -24 50 -24 l50 0 0 -35 0 -35 -50 0 c-46 0 -50 -2 -50 -24
0 -23 4 -25 53 -28 51 -3 52 -4 55 -35 l3 -33 -95 0 -96 0 0 155 0 155 96 0
95 0 -3 -32z m322 -35 c17 -36 36 -87 44 -112 8 -25 21 -63 30 -83 21 -49 21
-48 -18 -48 -29 0 -34 4 -42 33 -9 31 -12 32 -66 35 -57 3 -57 3 -72 -33 -13
-29 -20 -35 -46 -35 -28 0 -30 2 -24 28 8 31 51 141 88 225 21 47 30 57 51 57
21 0 29 -10 55 -67z m354 -15 c14 -46 26 -91 26 -101 0 -38 18 -4 46 88 l29
96 40 -3 c38 -3 40 -5 47 -43 3 -22 18 -91 31 -153 l25 -113 -42 3 -41 3 -11
93 c-7 51 -14 96 -17 99 -3 3 -11 -15 -17 -38 -35 -134 -45 -154 -77 -157 -30
-3 -31 -2 -57 85 -15 48 -30 95 -33 103 -7 19 -19 -32 -28 -122 l-7 -68 -39 0
c-21 0 -39 4 -39 8 0 5 14 73 30 150 17 78 30 144 30 147 0 3 17 5 39 5 l39 0
26 -82z m516 -35 l-60 -118 55 -3 55 -3 0 -34 0 -35 -110 0 c-60 0 -110 2
-110 6 0 8 79 164 101 201 l20 32 -58 3 c-57 3 -58 3 -61 36 l-3 32 115 0 115
0 -59 -117z"/>
<path d="M1890 2019 c0 -39 1 -40 33 -37 25 2 33 8 35 26 5 30 -14 52 -44 52
-21 0 -24 -5 -24 -41z"/>
<path d="M2586 1993 c-4 -16 -9 -36 -12 -45 -4 -15 1 -18 30 -18 l35 0 -16 45
c-17 52 -28 57 -37 18z"/>
</g>
</svg>
